<?xml version="1.0" encoding="UTF-8" standalone="no"?>
<svg
   width="456"
   height="456"
   viewBox="0 0 456 456"
   version="1.1"
   xmlns="http://www.w3.org/2000/svg">
  <path
     d="m 96.571765,286.26398 q 0,3.94748 -1.860281,7.80422 -1.814939,3.85659 -5.12714,6.53346 -3.629782,2.90412 -8.48464,4.53761 -4.809524,1.63317 -11.6154,1.63317 -7.304985,0 -13.15806,-1.36114 -5.807678,-1.36116 -11.842244,-4.0382 v -11.2524 h 0.635221 q 5.127102,4.2649 11.84226,6.57901 6.715109,2.31405 12.613564,2.31405 8.348553,0 12.976561,-3.13069 4.673382,-3.13086 4.673382,-8.34862 0,-4.49166 -2.223256,-6.62439 -2.177865,-2.13235 -6.669767,-3.31204 -3.402961,-0.90757 -7.395746,-1.49742 -3.947417,-0.58993 -8.393923,-1.49721 -8.983797,-1.90578 -13.339544,-6.48829 -4.310404,-4.62799 -4.310404,-12.02379 0,-8.48478 7.168894,-13.88417 7.168861,-5.44457 18.194402,-5.44457 7.123482,0 13.067289,1.36117 5.943843,1.36125 10.526487,3.35777 v 10.61715 h -0.635244 q -3.856688,-3.26697 -10.163465,-5.39928 -6.261411,-2.17818 -12.840447,-2.17818 -7.214232,0 -11.615391,2.99481 -4.355757,2.99463 -4.355757,7.71311 0,4.21979 2.177887,6.62452 2.17787,2.40455 7.667968,3.67521 2.903831,0.63534 8.257788,1.54271 5.353982,0.90734 9.074521,1.8603 7.531874,1.99647 11.343179,6.0346 3.811306,4.03821 3.811306,11.29752 z m 40.063975,18.82987 q -2.40483,0.63506 -5.26341,1.04343 -2.81304,0.40842 -5.03615,0.40842 -7.7588,0 -11.7969,-4.17442 -4.03808,-4.17444 -4.03808,-13.38468 v -26.95141 h -5.76238 v -7.16886 h 5.76238 v -14.56472 h 8.52982 v 14.56472 h 17.60472 v 7.16886 h -17.60472 v 23.09444 q 0,3.99287 0.18156,6.26166 0.1815,2.22318 1.27059,4.17411 0.9982,1.81477 2.72215,2.67717 1.76957,0.81667 5.35397,0.81667 2.08727,0 4.35591,-0.58998 2.26853,-0.63502 3.2667,-1.0434 h 0.45384 z m 49.68314,0.45348 h -8.48487 v -5.3993 q -1.13433,0.77137 -3.08528,2.17798 -1.9056,1.36126 -3.72049,2.17797 -2.13278,1.04335 -4.90052,1.72409 -2.76755,0.72588 -6.48807,0.72588 -6.85113,0 -11.61549,-4.53738 -4.7642,-4.53709 -4.7642,-11.56989 0,-5.76237 2.45007,-9.3014 2.49566,-3.58428 7.07849,-5.62618 4.62783,-2.04187 11.11607,-2.76761 6.48825,-0.72603 13.92942,-1.08913 v -1.31567 q 0,-2.90383 -1.04359,-4.80935 -0.99813,-1.90594 -2.90371,-2.99471 -1.81494,-1.04346 -4.35596,-1.40658 -2.54084,-0.36298 -5.30832,-0.36298 -3.35773,0 -7.48668,0.9074 -4.12865,0.86216 -8.53006,2.54097 h -0.45348 v -8.66629 q 2.49549,-0.6805 7.21413,-1.49733 4.71866,-0.81678 9.30135,-0.81678 5.35401,0 9.30114,0.90767 3.99299,0.8621 6.89695,2.99447 2.85846,2.08721 4.35556,5.39945 1.49754,3.31213 1.49754,8.21261 z m -8.48487,-12.47727 v -14.11091 q -3.90194,0.22695 -9.21052,0.68039 -5.26332,0.45383 -8.34845,1.31615 -3.67531,1.04335 -5.94402,3.26683 -2.26865,2.17777 -2.26865,6.03434 0,4.35589 2.63152,6.57903 2.63172,2.17787 8.03111,2.17787 4.49191,0 8.21239,-1.72406 3.72079,-1.76961 6.89662,-4.21964 z m 61.11693,-2.13261 q 0,6.94203 -5.76234,11.38856 -5.7169,4.44643 -15.65366,4.44643 -5.62619,0 -10.34475,-1.31568 -4.67338,-1.36126 -7.84938,-2.94937 v -9.57355 h 0.45355 q 4.03821,3.03977 8.98378,4.85485 4.94554,1.7696 9.48281,1.7696 5.62627,0 8.80254,-1.81492 3.176,-1.81493 3.176,-5.71673 0,-2.99471 -1.72416,-4.53745 -1.72441,-1.54285 -6.62444,-2.63174 -1.81495,-0.4084 -4.76412,-0.95275 -2.90393,-0.54436 -5.30869,-1.17979 -6.66947,-1.76922 -9.48273,-5.1722 -2.76786,-3.44852 -2.76786,-8.43944 0,-3.13058 1.27046,-5.89845 1.31587,-2.76781 3.94747,-4.94568 2.5409,-2.13232 6.44285,-3.35743 3.94753,-1.27067 8.80235,-1.27067 4.53714,0 9.16508,1.13453 4.67351,1.08887 7.75886,2.67688 v 9.11993 h -0.45375 q -3.26672,-2.40469 -7.94025,-4.03815 -4.67334,-1.67885 -9.16515,-1.67885 -4.67347,0 -7.8949,1.81497 -3.22141,1.76956 -3.22141,5.30855 0,3.13072 1.95092,4.71871 1.90559,1.58812 6.17085,2.58625 2.35918,0.5445 5.26316,1.08903 2.9494,0.54441 4.90012,0.99834 5.94372,1.36082 9.16535,4.67311 3.22144,3.3577 3.22144,8.89311 z m 54.5833,14.60988 h -8.52996 v -28.85688 q 0,-3.49362 -0.40847,-6.5335 -0.40844,-3.08539 -1.49736,-4.80943 -1.1344,-1.90601 -3.26678,-2.81329 -2.13252,-0.95292 -5.53552,-0.95292 -3.49356,0 -7.30479,1.72435 -3.8114,1.72404 -7.30513,4.40115 v 37.84052 h -8.53006 v -70.59967 h 8.53006 v 25.5449 q 3.99277,-3.31218 8.25803,-5.1724 4.26483,-1.86045 8.75665,-1.86045 8.21245,0 12.52305,4.94568 4.31028,4.94558 4.31028,14.24696 z m 25.59026,-59.16566 h -9.61904 v -8.84775 h 9.61904 z m -0.54449,59.16566 h -8.53043 v -50.681 h 8.53043 z m 44.14735,-62.34191 h -0.45341 q -1.4067,-0.40838 -3.67548,-0.8167 -2.26869,-0.4537 -3.993,-0.4537 -5.48987,0 -7.98522,2.45 -2.45037,2.40479 -2.45037,8.75707 v 1.72424 h 15.38142 v 7.16886 h -15.10892 v 43.51214 h -8.53025 v -43.51214 h -5.76218 v -7.16886 h 5.76218 v -1.67878 q 0,-9.02919 4.49211,-13.83872 4.49172,-4.85483 12.97634,-4.85483 2.85862,0 5.12717,0.27212 2.31388,0.2725 4.21961,0.63535 z m 48.77564,11.66091 -29.58287,69.3745 h -9.12005 l 9.43753,-21.1436 -20.19098,-48.2309 h 9.25635 l 15.56268,37.56847 15.69878,-37.56847 z"
     style="font-size:86.6667px;font-family:OpenSans-Semibold;-inkscape-font-specification:OpenSans-Semibold;fill:#ffffff;stroke-width:1.07202"
     id="path1" />
  <path
     d="m 339.29816,328.73313 -11.60003,31.86739 h -5.65015 l -11.59974,-31.86739 h 4.53715 l 9.99461,28.03656 9.99501,-28.03656 z m 23.75614,31.86739 h -17.24998 v -3.2532 h 6.63447 v -21.359 h -6.63447 v -2.91079 q 1.3482,0 2.88908,-0.21382 1.54112,-0.23553 2.33294,-0.66362 0.9843,-0.53493 1.5408,-1.34829 0.57795,-0.83469 0.6637,-2.22581 h 3.31729 v 28.72133 h 6.50617 z m 15.19529,0 h -5.11491 v -6.09947 h 5.11491 z m 30.39074,-15.94444 q 0,8.58214 -2.69661,12.60583 -2.67528,4.00216 -8.32545,4.00216 -5.73562,0 -8.38963,-4.06634 -2.63239,-4.06646 -2.63239,-12.49863 0,-8.4968 2.67545,-12.54175 2.67511,-4.06635 8.34657,-4.06635 5.73581,0 8.36812,4.13047 2.65394,4.10919 2.65394,12.43461 z m -5.62873,9.71653 q 0.74911,-1.73353 1.00589,-4.06647 0.27808,-2.35419 0.27808,-5.65006 0,-3.25311 -0.27808,-5.65006 -0.25678,-2.39693 -1.02738,-4.06632 -0.74899,-1.64797 -2.05461,-2.48284 -1.28398,-0.83447 -3.31723,-0.83447 -2.01173,0 -3.33855,0.83447 -1.30581,0.83487 -2.076,2.52567 -0.72792,1.58356 -1.00596,4.13058 -0.25688,2.54677 -0.25688,5.58599 0,3.33847 0.23531,5.58571 0.23551,2.24712 1.00602,4.02365 0.70637,1.66916 1.99033,2.54678 1.3054,0.8774 3.44573,0.8774 2.012,0 3.33887,-0.83474 1.32689,-0.8345 2.05446,-2.52529 z"
     style="font-size:53.3333px;font-family:OpenSans-Semibold;-inkscape-font-specification:OpenSans-Semibold;fill:#ffffff;stroke-width:0.821846"
     id="path2" />
  <path
     d="M 325.73213,107.00396 315.67304,88.254701 C 311.98393,81.370459 303.90805,78.116995 296.42031,80.540326 L 227.95582,102.81973 159.48253,80.540326 c -7.50452,-2.431698 -15.56371,0.830133 -19.25297,7.714375 l -9.96664,18.573219 c -3.46227,5.74393 -4.11785,12.64503 -1.78996,18.93372 2.31941,6.28895 7.31945,11.11056 13.68951,13.23192 l 1.7648,0.58662 -0.0508,30.36298 c 0,16.27556 10.37851,30.67302 25.85803,35.82155 l 40.85895,13.59208 c 5.57156,1.85319 11.42052,2.77537 17.2779,2.77537 5.85743,0 11.70626,-0.92208 17.27805,-2.77537 l 40.89208,-13.60069 c 15.48777,-5.14846 25.90001,-19.52909 25.9083,-35.77944 v -30.39652 l 1.78153,-0.59547 c 6.36993,-2.1214 11.36994,-6.94303 13.68943,-13.2318 2.32795,-6.28895 1.67233,-13.18983 -1.68908,-18.74933 z m -189.37659,15.85652 c -1.43705,-3.89069 -1.03368,-8.15894 1.21857,-11.89036 L 147.6333,92.220883 c 1.3782,-2.574231 4.03374,-4.083583 6.83217,-4.083583 0.79832,0 1.60505,0.125825 2.40347,0.385662 l 64.86809,21.105598 -16.57213,30.4803 c -3.25237,5.40844 -9.71481,7.80674 -15.68971,5.78583 l -44.64878,-14.85043 c -3.94127,-1.30796 -7.02547,-4.29313 -8.47087,-8.17548 z m 87.26407,90.69402 c -3.52116,-0.31863 -7.00029,-1.04 -10.36186,-2.16363 l -40.8589,-13.59226 c -12.04241,-4.00796 -20.12677,-15.19364 -20.11829,-27.85518 l 0.0426,-27.57061 34.4887,11.47107 c 2.30256,0.76269 4.64721,1.13201 6.9498,1.13201 7.47928,0 14.58064,-3.88239 18.69859,-10.72479 l 11.2105,-20.6026 z m 79.9271,-43.5777 c 0,12.63642 -8.10954,23.81369 -20.16018,27.81337 l -40.89217,13.6007 c -3.39524,1.13204 -6.91624,1.8532 -10.47113,2.17181 l 0.0554,-90.20796 11.44587,21.04704 c 4.0338,6.72496 11.11803,10.57374 18.58888,10.57374 2.31102,0 4.66409,-0.36927 6.96667,-1.13204 l 34.4715,-11.46259 z m 15.9919,-47.11641 c -1.44531,3.88234 -4.52948,6.85909 -8.47067,8.1754 l -44.64866,14.85043 c -6.00851,2.00395 -12.44573,-0.39402 -15.59722,-5.63488 l -16.65587,-30.63127 64.86777,-21.105421 c 3.59668,-1.182319 7.47085,0.402505 9.24392,3.697809 l 10.16003,18.933762 c 2.15127,3.55531 2.55461,7.82343 1.11754,11.70563 z M 167.09603,69.857605 c -1.62182,-1.643509 -1.60496,-4.310001 0.0511,-5.928358 L 207.33361,24.46014 c 4.87397,-4.88018 12.87451,-4.888569 17.799,0.02515 l 15.84105,15.806084 c 4.77329,-4.259683 12.73161,-4.133897 17.33671,0.461245 l 23.14364,23.084438 c 1.63883,1.635115 1.63883,4.293216 0,5.928338 -1.63863,1.635099 -4.30257,1.635099 -5.94137,0 L 252.3687,46.680874 c -1.63869,-1.635104 -4.30273,-1.635104 -5.94142,0 l -36.54773,35.804789 c -0.8236,0.804987 -1.89079,1.207476 -2.94976,1.207476 -1.09237,0 -2.17669,-0.41928 -2.99194,-1.249386 -1.62186,-1.651891 -1.59659,-4.309999 0.0507,-5.928334 L 234.96446,46.16938 219.18236,30.421997 c -1.63873,-1.635116 -4.30276,-1.635116 -5.94157,0 l -40.20351,39.477506 c -0.82343,0.804947 -1.88229,1.207467 -2.94957,1.207467 -1.08417,0 -2.17655,-0.419308 -2.9918,-1.249397 z"
     style="fill:#ffffff;stroke-width:8.39442"
     id="path3" />
</svg>
