<?xml version="1.0" encoding="UTF-8" standalone="no"?>
<svg
   width="456"
   height="456"
   viewBox="0 0 456 456"
   version="1.1"
   xmlns="http://www.w3.org/2000/svg">
  <path
     d="M 338.52223,211.64322 327.15151,190.4492 c -4.1701,-7.78187 -13.29904,-11.45956 -21.76309,-8.72025 l -77.39176,25.18445 -77.40178,-25.18445 c -8.48301,-2.74877 -17.59296,0.93838 -21.76322,8.72025 l -11.26633,20.99501 c -3.91377,6.4929 -4.65473,14.29374 -2.02338,21.40258 2.62184,7.10893 8.27401,12.55917 15.47458,14.9572 l 1.99489,0.66324 -0.0577,34.32193 c 0,18.39775 11.7318,34.67244 29.22976,40.49235 l 46.18654,15.36432 c 6.29816,2.0948 12.90976,3.13738 19.53091,3.13738 6.62132,0 13.23259,-1.04248 19.53102,-3.13738 l 46.22412,-15.37401 c 17.50738,-5.8198 29.27717,-22.07551 29.28659,-40.4447 v -34.35996 l 2.01378,-0.67323 c 7.20055,-2.398 12.85251,-7.84833 15.47445,-14.95714 2.6314,-7.10892 1.89045,-14.90973 -1.90934,-21.19399 z m -214.06981,17.92404 c -1.6244,-4.39798 -1.16843,-9.22268 1.37743,-13.44059 l 11.37082,-21.19409 c 1.55791,-2.90992 4.55974,-4.61607 7.72304,-4.61607 0.90247,0 1.8144,0.14223 2.71685,0.43593 l 73.32651,23.85763 -18.73313,34.45457 c -3.67638,6.11374 -10.98147,8.82472 -17.73556,6.54029 l -50.47052,-16.78669 c -4.45524,-1.47857 -7.94154,-4.85297 -9.57544,-9.24157 z m 98.64264,102.51966 c -3.98031,-0.36012 -7.91314,-1.17547 -11.71298,-2.44563 l -46.18656,-15.36458 c -13.6127,-4.53057 -22.75117,-17.1749 -22.74165,-31.48727 l 0.0479,-31.16558 38.98568,12.96678 c 2.60285,0.86223 5.25319,1.27961 7.85604,1.27961 8.4545,0 16.48179,-4.38854 21.13662,-12.12309 l 12.67243,-23.28908 z m 90.34902,-49.25966 c 0,14.28396 -9.16697,26.91872 -22.78902,31.4399 l -46.22415,15.37413 c -3.83789,1.27961 -7.81803,2.09484 -11.83638,2.45498 l 0.0625,-101.97018 12.93825,23.79129 c 4.5598,7.60179 12.5678,11.95244 21.01282,11.95244 2.61229,0 5.2722,-0.41738 7.87506,-1.27961 l 38.96635,-12.95724 z m 18.0771,-53.26009 c -1.6338,4.38847 -5.12013,7.7534 -9.57522,9.24143 l -50.47046,16.78682 c -6.79203,2.26532 -14.06863,-0.44554 -17.63092,-6.36966 l -18.82774,-34.62529 73.326,-23.85741 c 4.06566,-1.33648 8.44503,0.45498 10.44931,4.18002 l 11.48479,21.40248 c 2.43181,4.01892 2.88775,8.84358 1.26325,13.23199 z M 159.20136,169.65328 c -1.83338,-1.8578 -1.81437,-4.87198 0.0571,-6.70135 l 45.42652,-44.61554 c 5.50962,-5.51652 14.55319,-5.52599 20.11984,0.0284 l 17.90662,17.86707 c 5.39568,-4.81511 14.39171,-4.67293 19.59731,0.52138 l 26.16144,26.09445 c 1.85245,1.84832 1.85245,4.85302 0,6.70134 -1.85238,1.84831 -4.86365,1.84831 -6.71612,0 l -26.1613,-26.09453 c -1.85243,-1.8483 -4.8638,-1.8483 -6.71617,0 l -41.31332,40.47344 c -0.93096,0.90995 -2.13737,1.36492 -3.33432,1.36492 -1.2349,0 -2.4605,-0.47395 -3.382,-1.41231 -1.83343,-1.86727 -1.80494,-4.87197 0.057,-6.70133 l 35.01539,-34.30289 -17.84001,-17.80071 c -1.85241,-1.84832 -4.86376,-1.84832 -6.71619,0 l -45.44571,44.62503 c -0.93097,0.90991 -2.12788,1.36491 -3.33431,1.36491 -1.22543,0 -2.46036,-0.47398 -3.3818,-1.41231 z"
     style="fill:#ffffff;stroke-width:9.48897"
     id="path1" />
</svg>
